<?xml version="1.0" encoding="UTF-8" standalone="no"?>
<!DOCTYPE svg PUBLIC "-//W3C//DTD SVG 1.1//EN" "http://www.w3.org/Graphics/SVG/1.1/DTD/svg11.dtd">
<svg width="100%" height="100%" viewBox="0 0 420 969" version="1.1" xmlns="http://www.w3.org/2000/svg" xmlns:xlink="http://www.w3.org/1999/xlink" xml:space="preserve" xmlns:serif="http://www.serif.com/" style="fill-rule:evenodd;clip-rule:evenodd;stroke-linejoin:round;stroke-miterlimit:2;">
    <g transform="matrix(1,0,0,1,-28.2255,-16.1301)">
        <g id="Path-0" serif:id="Path 0" transform="matrix(1.46353,0,0,1.46353,-512.148,-73.7309)">
            <path d="M474.3,78C474.3,82.7 474.5,84.5 474.7,82C474.9,79.5 474.9,75.7 474.7,73.5C474.5,71.3 474.3,73.3 474.3,78ZM505.9,163.5C501.8,167.6 498.2,170.7 497.7,170.5C497.3,170.2 496.8,171 496.5,172.3C496.2,173.5 495.9,181 495.7,189C495.4,199.6 495.7,204.2 496.7,206.3C497.4,207.8 498.8,209.2 499.7,209.5C500.7,209.8 502.8,209.7 504.4,209.3C506,208.9 508.4,207.3 509.7,205.7C511.9,203.1 512,202.4 512,183.8C512.1,169.4 512.5,163.6 513.5,160.7C514.3,158.7 514.6,156.8 514.1,156.5C513.6,156.3 509.9,159.4 505.9,163.5ZM655.4,447C655.4,465.4 655.6,473.1 655.7,464C655.9,454.9 655.9,439.9 655.7,430.5C655.6,421.1 655.4,428.6 655.4,447ZM655.5,580C655.5,622.1 655.6,639.2 655.7,618C655.9,596.8 655.9,562.4 655.7,541.5C655.6,520.6 655.5,537.9 655.5,580Z" style="fill:rgb(241,201,135);fill-rule:nonzero;"/>
        </g>
        <g id="Path-1" serif:id="Path 1" transform="matrix(1.46353,0,0,1.46353,-512.148,-73.7309)">
            <path d="M477,64C475.2,65.8 475,67.3 475,77.5C475,87.7 475.2,89.2 477,91C478.1,92.1 479.4,93 480,93C480.6,93 481,96.8 481,102.5C481,108.2 481.5,113.3 482.3,115.3C483.1,117 485.2,119.9 487.1,121.6C489,123.2 492.2,125.3 494.3,126.1C496.9,127.1 498,128.1 498,129.5C498,130.6 497.1,132.8 496,134.5C495,136.2 489.5,141.8 483.8,147.1C477.1,153.3 472.6,158.4 471,161.6C468.5,166.4 468.5,166.9 468.5,189.5C468.5,209.5 468.7,212.9 470.2,215.8C471.2,217.5 473.9,221.1 476.2,223.6C478.6,226.2 483.1,230.1 486.4,232.4C489.7,234.7 493.2,238.3 494.5,240.5C495.8,242.7 497.1,246.1 497.5,248C497.9,249.9 497.9,253.4 497.6,255.8L497,260C467.2,260 466.9,260.1 464.5,262.5C462.1,264.9 462,265.5 462,278.5C462,291.6 462.1,292.1 464.5,294.5C465.9,295.9 467.4,297 468,297C468.6,297 468.8,300 468.4,305.3C468,309.8 466.9,316.2 465.9,319.5C464.8,322.8 462.9,327.1 461.6,329C460.2,330.9 456.3,334.5 452.8,337C449.3,339.4 437.5,345.6 426.5,350.8C415.5,355.9 403.6,362.1 400,364.5C396.4,366.9 390.5,371.9 386.9,375.7C383.3,379.4 379,384.8 377.4,387.5C375.9,390.3 373.4,395.4 372,399L369.5,405.5C369,642.2 369.1,659.4 370.5,665.5C371.3,669.4 373.4,675.4 375.1,679C377.4,683.5 380.8,687.9 386.4,693.5C392.3,699.4 396.7,702.7 402.5,705.6C406.9,707.9 413.4,710.7 417,711.9C420.6,713 427.8,714.9 433,715.9C438.2,717 446.1,718.4 450.5,719C454.9,719.6 466.6,720.6 476.5,721.3C486.4,722 497,722.2 500,721.9C503,721.5 508.8,721 512.8,720.6C518.5,720.1 520.3,720.3 521.5,721.5C522.7,722.7 525.4,722.9 535.3,722.6C542,722.5 553.4,721.6 560.5,720.7C567.6,719.8 579.6,717.9 587,716.4C594.4,715 604.8,712.3 610,710.4C615.2,708.5 622.4,705.2 626,703.1C629.6,701 635.4,696.1 639,692.4C642.9,688.3 646.9,682.8 648.8,679C650.5,675.4 652.6,669.8 653.5,666.5C654.8,661.3 655,644.4 654.9,534.5C654.8,429.3 654.6,407.6 653.4,403C652.6,400 650.6,394.8 649,391.5C647.4,388.2 644,382.9 641.5,379.7C639,376.6 634,371.5 630.2,368.5C626.3,365.3 617.4,359.9 609,355.6C601,351.5 591.6,347 588,345.5C584.4,344 578.4,340.9 574.5,338.7C570.6,336.4 565.8,332.8 563.7,330.5C561.6,328.3 559,324 557.9,321C556.7,318 555.5,311.6 555.2,306.9L554.5,298.2L561,292C561.1,265.9 561,265.4 558.5,262.7L556,260C524.1,260 524,260 524,257.7C524,256.5 525.2,253.7 526.8,251.5C528.3,249.3 533,244.7 537.1,241.4C541.1,238 547,232.6 550.1,229.4C553.1,226.1 556.7,221.2 558.1,218.5C560.4,213.7 560.5,212.6 560.8,189.5C561,174.2 560.8,164 560.1,161.5C559.5,159.3 557.5,155.7 555.7,153.5C553.9,151.3 550.1,148.4 547.4,147.1C543.9,145.3 540.9,144.7 536.5,144.7C532.3,144.7 529.1,145.4 526,147C523.5,148.2 520.4,150.2 519.2,151.4C517.9,152.5 515.8,155.3 514.7,157.5C512.7,161.1 512.5,163.5 512,182.7C511.5,203.6 511.5,203.9 509,206.4C507.6,207.8 505.4,209.2 504,209.5C502.6,209.8 500.7,209.8 499.8,209.5C498.8,209.2 497.4,207.8 496.7,206.3C495.7,204.4 495.4,200.4 495.6,193.5C495.8,188 496,180.8 496,177.5L496.1,171.5C517.5,149.9 521.6,145 523.4,141C524.9,137.9 526,133.7 526,131.5C525.9,127.8 526.3,127.3 530.3,124.9C532.7,123.5 536.2,120.5 538.1,118.1C541.4,114 541.5,113.4 541.9,103.7C542.3,93.9 542.4,93.4 545.2,91.3C548,89 548,88.9 548,77.8C548,67.9 547.8,66.2 546,64.3C544,62 543.9,62 511.5,62C480.3,62 478.9,62.1 477,64Z" style="fill:rgb(52,25,28);fill-rule:nonzero;"/>
        </g>
        <g id="Path-2" serif:id="Path 2" transform="matrix(1.46353,0,0,1.46353,-512.148,-73.7309)">
            <path d="M496.5,61.7C505.3,61.9 519.3,61.9 527.5,61.7C535.8,61.6 528.5,61.4 511.5,61.4C494.4,61.4 487.7,61.6 496.5,61.7ZM654.5,480.7C654,481 653.7,486.2 653.8,492.2C653.9,498.2 654.4,503.2 655,503.5C655.6,503.8 656,499.7 656,492C656,485.4 655.9,480 655.7,480C655.5,480 655,480.3 654.5,480.7ZM508.8,720.9C504.6,721.2 500.8,721.8 500.4,722.3C500,722.7 504.7,723 510.8,723C517.6,723 522,722.6 522,722C522,721.5 521.3,720.8 520.5,720.5C519.7,720.2 518.4,720.1 517.7,720.2C517.1,720.2 513.1,720.6 508.8,720.9Z" style="fill:rgb(150,82,32);fill-rule:nonzero;"/>
        </g>
        <g id="Path-3" serif:id="Path 3" transform="matrix(1.46353,0,0,1.46353,-512.148,-73.7309)">
            <path d="M472,269L472,287L489.5,287L490,269L472,269ZM466.5,434.1C458.8,434.5 445.3,435.6 436.5,436.5C427.7,437.5 420.2,438.4 419.7,438.6C419.3,438.8 419.9,440.2 421,441.8C422.4,443.6 423.1,446 423,449.3C423,451.9 422.6,454.9 422,456C421.3,457.4 421.3,458.1 422.3,458.5C422.9,458.7 429.8,459.6 437.5,460.4C445.2,461.3 459.4,462.4 469,463C478.6,463.6 499.6,464.1 515.5,464.1C531.5,464.1 551.7,463.6 560.5,463C569.3,462.4 582.4,461.3 589.5,460.4C596.6,459.6 603.3,458.7 604.3,458.4C605.8,458.1 606,456.7 606,448.5C606,441.8 605.6,438.9 604.8,438.6C604.1,438.4 596.1,437.5 587,436.6C577.9,435.7 566.2,434.6 561,434.2C555.8,433.7 535.5,433.3 516,433.3C496.5,433.3 474.2,433.6 466.5,434.1ZM393.1,446C391.3,447.1 389.8,448.4 389.9,449C389.9,449.5 391.6,450.7 393.5,451.5C395.4,452.3 397.4,452.8 398,452.5C398.6,452.2 399,450.9 399,449.5C399,448.1 398.8,446.3 398.5,445.5C398.2,444.7 397.7,444 397.3,444C396.8,444 395,444.9 393.1,446ZM380.1,556.7C380,645.3 380.2,658.2 381.6,663.5C382.4,666.8 384.6,672.2 386.3,675.4C388.1,678.6 392.2,683.8 395.5,686.9C398.8,690 404.7,694.1 408.5,696.1C412.4,698.1 417.8,700.5 420.5,701.3C423.3,702.2 430,703.8 435.5,704.9C441,706 449.6,707.4 454.5,708C459.4,708.6 465.1,709.3 467,709.5C468.9,709.8 476.4,710.2 483.5,710.5C490.6,710.8 498.8,711.5 501.5,712.1C504.3,712.7 510.6,712.9 515.5,712.7C520.5,712.4 531.5,711.7 540,711.1C548.5,710.6 557.8,709.9 560.5,709.5C563.3,709.2 572.3,707.8 580.5,706.4C588.8,705.1 599.5,702.6 604.5,701C609.5,699.3 616.5,696 620.3,693.5C624,691 628.5,687.4 630.3,685.3C632,683.3 634.8,679.8 636.5,677.6C638.1,675.3 640.6,670.4 642,666.5L644.5,659.5C644.7,497.5 644.4,456 643.9,456C643.4,456 643,456.3 643,456.8C643,457.2 641.5,458.4 639.5,459.5L636,461.5C636,635.3 635.7,650.6 634.5,656.5C633.6,660.4 631.3,666.4 629.4,670C627.4,673.6 623.7,678.7 621.1,681.3C618.6,684 613.4,688.1 609.5,690.5C605.3,693.1 598.9,695.9 593.5,697.5C588.5,698.9 582.8,700.2 580.6,700.3C577.5,700.5 576.6,700.1 575.9,698.3C575.1,696.3 575.5,695.8 578.8,694.1C580.8,693.1 585.6,689.3 589.5,685.7C593.5,682.1 597.7,676.9 599.4,673.9C601,670.9 602.9,666.5 603.6,664C604.7,660.3 605,641.6 605,564.2L605,469C601.5,469 595.8,469.6 590,470.4C584.2,471.2 574.5,472.2 568.5,472.5C562.5,472.9 555.7,473.3 553.5,473.6C551.3,473.8 534.2,474 515.5,474C496.8,474 474.1,473.6 465,473C455.9,472.4 444.4,471.5 439.5,471C434.6,470.5 429.4,470 428,470C426.2,470 425.1,470.8 424.2,472.8C423.3,474.9 423,488.7 423,532.3C423,569.1 423.4,589.2 424,589.5C424.6,589.8 425,594.8 425,601.5C425,608.2 424.6,613.2 424,613.5C423.4,613.8 423,615.7 423,617.8C423,619.8 423.4,622 423.9,622.5C424.4,623 424.9,635 425.1,649L425.5,674.5C419.1,674.1 417.1,673.1 414.7,670.8C412.9,669 409.3,665 406.8,662C404.2,659 401.4,654.8 400.6,652.8C399.2,649.4 399,638.3 399,556.8L399,464.5C388.5,460.8 384.3,458.9 382.9,457.8L380.2,455.9L380.1,556.7Z" style="fill:rgb(233,145,28);fill-rule:nonzero;"/>
        </g>
        <g id="Path-4" serif:id="Path 4" transform="matrix(1.46353,0,0,1.46353,-512.148,-73.7309)">
            <path d="M491,102.3C491,108 491.5,111.2 492.5,112.8C493.3,114 495.4,115.7 497,116.5C499.1,117.6 503.2,118 511,118C518.4,118 522.9,117.5 524.8,116.6C526.3,115.8 528.4,114.2 529.5,113C531.1,111.3 531.6,108.9 532,102.4L532.5,94L491,94L491,102.3ZM507,130.8C507,132 506.3,134.5 505.4,136.3C504.4,138.1 498.2,145.2 491.5,152.1C482.2,161.5 479,165.5 478.2,168.6C477.5,170.9 477,180.1 477,190.6C477,205.8 477.3,209.2 478.9,212.6C479.9,214.7 482.8,218.5 485.4,220.8C487.9,223.1 491.2,225.6 492.8,226.2C494.3,226.8 497.1,227.7 499,228.2C501.1,228.7 504.5,228.6 507.5,228C510.3,227.4 514.3,225.7 516.5,224.2C518.7,222.7 522,219.6 523.8,217.2C525.5,214.9 527.5,211.4 528,209.3C528.6,207.2 529.3,202.4 529.5,198.6C529.8,194.7 530.3,186.1 530.6,179.6C531.2,168.8 531.5,167.3 533.6,165.3C534.9,164.1 536.4,163.1 537,163.1C537.5,163.1 539.1,164.2 540.5,165.6C542.9,167.9 543,168.6 543,178.8C543,184.7 542.5,194.2 542,199.8C541.4,206.4 540.3,211.5 539,214.1C537.8,216.4 534.1,220.4 529.8,223.9C525.8,227.2 519.7,232.7 516.4,236.2C513,239.7 509,245 507.6,248.1C506.1,251.2 505.1,254.9 505.2,256.6C505.5,259.4 505.8,259.6 510.3,259.8C514.6,260 515,259.9 515,257.8C515,256.6 515.9,253.7 516.9,251.6C518,249 522.5,244.1 529.1,238.1C534.8,232.8 541.4,226.6 543.7,224.3C546.1,222 548.8,218.6 549.8,216.8C551.3,214 551.5,210.1 551.8,189C552,167.2 551.9,164.2 550.3,161.1C549.3,159.2 547.2,156.8 545.7,155.6C543.6,154.1 541.4,153.6 537.2,153.6C533.3,153.6 530.4,154.2 528,155.6C526.1,156.7 523.6,159.4 522.5,161.6C520.7,165.1 520.5,167.8 520.3,185C520,203.9 519.9,204.7 517.5,208.8C516,211.4 513.5,213.8 511,215.1C508.5,216.3 505,217 501.8,217C498.267,217 495.433,216.333 493.3,215C491.5,213.9 489.3,211.6 488.4,209.8C487.1,207.1 486.8,203.7 487.1,189.6C487.5,175.3 487.8,172 489.4,169.1C490.4,167.1 496.1,160.6 501.9,154.6C507.8,148.5 513.6,141.5 514.8,139.1C516,136.6 516.9,133.1 516.8,131.2C516.5,128 516.5,128 511.8,128.2C507.6,128.5 507,128.8 507,130.8ZM478.7,305.8C478.4,310.6 477.4,317.5 476.5,321.1C475.6,324.6 474.1,328.9 473.2,330.6C472.4,332.2 469.4,336 466.6,338.9C463.8,341.8 458.8,345.9 455.5,348C452.2,350.1 440.7,356.1 430,361.3C419.3,366.5 407.8,372.8 404.5,375.3C401.2,377.8 396.1,382.4 393.2,385.7C390.2,388.9 386.5,394.2 385,397.5C383.4,400.9 381.7,406.2 381.1,409.5C380.5,412.9 380,421.9 380,429.5L380,443.5C384.3,439.4 387.5,437.3 390,436.2C392.5,435.1 398.3,433.2 403,432.1C407.7,431 416,429.5 421.5,428.6C427,427.8 436.9,426.7 443.5,426C450.1,425.4 462,424.6 470,424.2C478,423.7 494.4,423.3 506.5,423.2C518.6,423.1 538.2,423.5 550,424C561.8,424.6 580.7,426.2 592,427.5C603.3,428.9 614.8,430.4 617.5,431C620.3,431.6 625.4,433.1 629,434.2C632.6,435.4 636.6,437 638,437.9C639.4,438.7 641.5,440.3 642.8,441.5L645.1,443.5C645,422.6 644.4,413.6 643.6,410C642.9,406.5 640.8,400.4 638.9,396.5C636.8,392.1 633.2,387.1 629.1,382.7C625.5,378.9 619.8,374 616.5,371.7C613.2,369.5 604.9,365 598,361.8C591.1,358.5 581,353.7 575.5,351C569.3,348 563.2,344.1 559.5,340.7C556.2,337.8 552.3,333.1 550.8,330.4C549.3,327.8 547.4,322.6 546.6,319.1C545.7,315.5 545,309.1 545,304.8L545,297.1L479.3,297.1L478.7,305.8ZM407,441.3L398.5,443.5C398.7,453.1 398.9,453.6 401.6,454.3C403.2,454.7 408.1,455.7 412.5,456.6C420.1,458.1 420.5,458.1 421.7,456.4C422.4,455.3 423,452.3 423,449.5C423,446 422.4,443.7 421,441.8C419.9,440.2 418.2,439 417.2,439.1C416.2,439.1 411.6,440.1 407,441.3ZM399.1,556.9C399,638.5 399.1,649.4 400.5,652.8C401.4,654.8 404.2,659 406.7,662C409.3,665 412.9,669 414.7,670.8C417,673.1 419,674.1 421.7,674.3L425.5,674.5C424.9,635 424.3,623 423.8,622.5C423.3,622 422.9,619.8 422.9,617.8C423,615.7 423.4,613.8 424,613.5C424.5,613.2 425,608.2 425,601.5C425,594.8 424.5,589.8 424,589.5C423.3,589.2 423,568.8 423,531.5C423,494.2 423.3,473.8 424,473.5C424.5,473.2 424.9,472.2 424.9,471.2C424.9,469.7 423.1,469.1 414.7,467.7C409.1,466.7 403.3,465.6 401.9,465.3L399.2,464.8L399.1,556.9Z" style="fill:rgb(241,201,135);fill-rule:nonzero;"/>
        </g>
        <g id="Path-5" serif:id="Path 5" transform="matrix(1.46353,0,0,1.46353,-512.148,-73.7309)">
            <path d="M484.6,70.6C484.1,71 483.7,74.2 483.8,77.7L484,84L539,84L539,71C500.6,71 488.6,70.7 487.5,70.4C486.4,70.1 485.1,70.2 484.6,70.6ZM489.4,276.3C489,280.2 489,284.3 489.4,285.3C489.9,286.8 491.5,287 501.7,287C508.2,287.1 518.9,287.1 525.5,287.2C532.1,287.2 540.5,287.2 544.2,287.1L551,287L551,269L490.2,269L489.4,276.3ZM606.1,438.9L605.9,458.1C611.7,457.1 616.3,456.2 619.9,455.3C623.5,454.5 628.1,453.2 630.2,452.4C632.2,451.7 633.9,450.4 633.9,449.6C633.9,448.7 632.9,447.4 631.7,446.5C630.4,445.7 626,443.9 621.9,442.6C617.8,441.3 612.6,440 610.3,439.6L606.1,438.9ZM627.4,464.1C624.1,465.1 617.6,466.4 612.9,467.1L604.4,468.4C604.9,634.6 604.7,659.7 603.8,663.1C603.2,665.5 601.2,670.2 599.5,673.4C597.6,677.1 593.8,681.8 589.4,685.8C585.6,689.4 580.7,693.1 578.7,694.2C575.4,695.8 575,696.3 575.8,698.3C576.5,700.2 577.4,700.5 580.6,700.4C582.7,700.3 588.5,699 593.4,697.6C598.9,696 605.2,693.2 609.4,690.6C613.3,688.2 618.5,684 621.1,681.4C623.6,678.7 627.3,673.6 629.3,670.1C631.3,666.5 633.6,660.4 634.4,656.6C635.7,650.6 635.9,635.4 635.9,555.8C635.9,481.4 635.7,462.1 634.7,462.2C634,462.2 630.7,463.1 627.4,464.1Z" style="fill:rgb(150,82,32);fill-rule:nonzero;"/>
        </g>
    </g>
</svg>
